<svg xmlns="http://www.w3.org/2000/svg" version="1.1" xmlns:xlink="http://www.w3.org/1999/xlink" xmlns:svgjs="http://svgjs.dev/svgjs" width="1500" height="1500" viewBox="0 0 1500 1500"><rect width="1500" height="1500" fill="#ffffff"></rect><g transform="matrix(0.6666666666666666,0,0,0.6666666666666666,249.39393939393938,489.9208844221478)"><svg viewBox="0 0 396 206" data-background-color="#f7f7f7" preserveAspectRatio="xMidYMid meet" height="780" width="1500" xmlns="http://www.w3.org/2000/svg" xmlns:xlink="http://www.w3.org/1999/xlink"><g id="tight-bounds" transform="matrix(1,0,0,1,0.2400000000000091,0.031341940456798056)"><svg viewBox="0 0 395.52 205.9373161190864" height="205.9373161190864" width="395.52"><g><svg viewBox="0 0 609.517932342857 317.3606571428571" height="205.9373161190864" width="395.52"><g transform="matrix(1,0,0,1,363.0242180571428,35.080328571428566)"><svg viewBox="0 0 246.49371428571425 247.2" height="247.2" width="246.49371428571425"><g id="textblocktransform"><svg viewBox="0 0 246.49371428571425 247.2" height="247.2" width="246.49371428571425" id="textblock"><g><svg viewBox="0 0 246.49371428571425 247.2" height="247.2" width="246.49371428571425"><g transform="matrix(1,0,0,1,0,0)"><svg width="246.49371428571425" viewBox="1.25 -35 34.9 35" height="247.2" data-palette-color="#0d6efd"><path d="M1.25-34.05L1.25-35 16.5-35 16.5-34.05 13.75-34.05 13.75-18.25 14.15-18.35 28.25-34.05 24.3-34.05 24.3-35 33.05-35 33.05-34.05 30.05-34.05 21.45-24.45 33.45-0.95 36.15-0.95 36.15 0 20.1 0 20.1-0.95 22.45-0.95 14.2-16.9 13.75-16.8 13.75-0.95 16.5-0.95 16.5 0 1.25 0 1.25-0.95 4-0.95 4-34.05 1.25-34.05Z" opacity="1" transform="matrix(1,0,0,1,0,0)" fill="#000000" class="wordmark-text-0" data-fill-palette-color="primary" id="text-0"></path></svg></g></svg></g></svg></g></svg></g><g><svg viewBox="0 0 304.6662308571428 317.3606571428571" height="317.3606571428571" width="304.6662308571428"><g><svg xmlns="http://www.w3.org/2000/svg" xmlns:xlink="http://www.w3.org/1999/xlink" version="1.1" x="0" y="0" viewBox="8 7.5 24 25" enable-background="new 0 0 40 40" xml:space="preserve" height="317.3606571428571" width="304.6662308571428" class="icon-icon-0" data-fill-palette-color="accent" id="icon-0"><path fill-rule="evenodd" clip-rule="evenodd" d="M12 10.5v-3H8v2h2v13c0 1.1 0.9 2 2 2v5h2.3c-0.2 0.3-0.3 0.6-0.3 1 0 1.1 0.9 2 2 2 1.1 0 2-0.9 2-2 0-0.4-0.1-0.7-0.3-1h6.6c-0.2 0.3-0.3 0.6-0.3 1 0 1.1 0.9 2 2 2 1.1 0 2-0.9 2-2 0-0.4-0.1-0.7-0.3-1H30v-2H14v-3h16c1.1 0 2-0.9 2-2v-12H12zM14 22.5h-2v-2h2V22.5zM14 18.5h-2v-2h2V18.5zM14 14.5h-2v-2h2V14.5zM18 22.5h-2v-2h2V22.5zM18 18.5h-2v-2h2V18.5zM18 14.5h-2v-2h2V14.5zM22 22.5h-2v-2h2V22.5zM22 18.5h-2v-2h2V18.5zM22 14.5h-2v-2h2V14.5zM26 22.5h-2v-2h2V22.5zM26 18.5h-2v-2h2V18.5zM26 14.5h-2v-2h2V14.5zM30 22.5h-2v-2h2V22.5zM30 18.5h-2v-2h2V18.5zM30 14.5h-2v-2h2V14.5z" fill="#000000" data-fill-palette-color="accent"></path></svg></g></svg></g></svg></g><defs></defs></svg><rect width="395.52" height="205.9373161190864" fill="none" stroke="none" visibility="hidden"></rect></g></svg></g></svg>